<svg xmlns="http://www.w3.org/2000/svg" xmlns:xlink="http://www.w3.org/1999/xlink" id="Layer_1" x="0px" y="0px" viewBox="0 0 853.97 294.36" style="enable-background:new 0 0 853.97 294.36;" xml:space="preserve"><style type="text/css">	.st0{fill:url(#SVGID_1_);}	.st1{fill:url(#SVGID_2_);}	.st2{fill:url(#SVGID_3_);}	.st3{fill:#198AFF;}	.st4{fill:#4D73FF;}	.st5{fill:#39B2F9;}	.st6{fill:#161616;}</style><g id="Layer_1_1_">	<g>					<linearGradient id="SVGID_1_" gradientUnits="userSpaceOnUse" x1="424.8679" y1="-100.829" x2="1174.8137" y2="251.6578" gradientTransform="matrix(0.5689 0 0 -0.5689 74.1456 122.1109)">			<stop offset="0" style="stop-color:#00FFD5"></stop>			<stop offset="0.0617" style="stop-color:#01F5D8"></stop>			<stop offset="0.1678" style="stop-color:#04D9DF"></stop>			<stop offset="0.3057" style="stop-color:#09ACEB"></stop>			<stop offset="0.4684" style="stop-color:#0F6EFB"></stop>			<stop offset="0.5072" style="stop-color:#115EFF"></stop>			<stop offset="1" style="stop-color:#9814FF"></stop>		</linearGradient>		<path class="st0" d="M476.83,213.67c1.54,1.54,2.33,3.53,2.33,5.86c0,1.25-0.34,2.5-0.91,3.75c-0.63,1.25-1.65,2.5-3.07,3.75    c-2.79,2.96-5.29,4.44-7.51,4.44c-1.71,0-3.58-1.02-5.63-3.07l-16.16-16.16c-6.09,2.33-11.43,3.53-15.93,3.53h-51.09    c-4.04,0-8.25-0.8-12.52-2.45c-4.32-1.65-8.48-3.93-12.52-6.94c-8.42-6.26-12.63-15.7-12.63-28.39V66.67    c0-6.26,1.08-11.78,3.3-16.5c2.16-4.78,5.29-8.65,9.39-11.61h-0.23c3.93-2.67,8.08-4.84,12.52-6.54c4.44-1.71,8.7-2.56,12.8-2.56    h51.09c3.93,0,8.02,0.85,12.4,2.56c4.38,1.71,8.59,3.93,12.63,6.54h-0.23c4.04,2.96,7.17,6.83,9.39,11.61    c2.16,4.78,3.3,10.3,3.3,16.5V178c0,3.75-0.51,7.34-1.54,10.81c-1.02,3.41-2.39,6.66-4.1,9.61L476.83,213.67z M423.13,192.11    c4.21,0,8.14-1.14,11.72-3.41c3.58-2.28,5.4-6.03,5.4-11.38L439.8,68.77c0-3.93-1.19-7.51-3.53-10.81    c-2.33-3.3-6.49-4.95-12.4-4.95H384.5c-5.8,0-9.9,1.65-12.29,4.95c-2.45,3.3-3.64,6.88-3.64,10.81v107.35    c0,4.04,1.19,7.74,3.64,11.04c2.45,3.3,6.54,4.95,12.29,4.95L423.13,192.11L423.13,192.11z M425.01,161.16    c0,5.46-1.88,10.07-5.63,13.82c-3.75,3.75-8.36,5.63-13.82,5.63c-5.29,0-9.84-1.88-13.6-5.63c-3.75-3.75-5.63-8.36-5.63-13.82    c0-5.29,1.88-9.84,5.63-13.6c3.75-3.75,8.31-5.63,13.6-5.63c5.46,0,10.07,1.88,13.82,5.63    C423.13,151.32,425.01,155.87,425.01,161.16z"></path>					<linearGradient id="SVGID_2_" gradientUnits="userSpaceOnUse" x1="477.8539" y1="-123.8925" x2="1214.5917" y2="169.9044" gradientTransform="matrix(0.5689 0 0 -0.5689 74.1456 122.1109)">			<stop offset="0" style="stop-color:#00FFD5"></stop>			<stop offset="0.0617" style="stop-color:#01F5D8"></stop>			<stop offset="0.1678" style="stop-color:#04D9DF"></stop>			<stop offset="0.3057" style="stop-color:#09ACEB"></stop>			<stop offset="0.4684" style="stop-color:#0F6EFB"></stop>			<stop offset="0.5072" style="stop-color:#115EFF"></stop>			<stop offset="1" style="stop-color:#9814FF"></stop>		</linearGradient>		<path class="st1" d="M533.32,205.7c0,7.51-4.61,11.26-13.82,11.26c-9.22,0-13.82-3.75-13.82-11.26V43.51    c0-3.58,1.02-6.83,3.07-9.73c2.05-2.9,5.92-4.32,11.72-4.32h79.7c5.63,0,8.59,3.93,8.93,11.72c0.28,7.96-2.67,11.95-8.93,11.95    h-66.79V205.7H533.32z M593.34,118.72c0,2.67-0.51,5.18-1.54,7.62c-1.02,2.45-2.45,4.49-4.21,6.2c-1.82,1.71-3.87,3.07-6.2,4.1    c-2.33,1.02-4.95,1.54-7.74,1.54c-5.29,0-9.84-1.88-13.6-5.63c-3.75-3.75-5.63-8.36-5.63-13.82c0-5.46,1.88-10.07,5.63-13.82    c3.75-3.75,8.31-5.63,13.6-5.63c2.79,0,5.4,0.51,7.74,1.54c2.33,1.02,4.44,2.45,6.2,4.21c1.82,1.82,3.19,3.87,4.21,6.2    C592.83,113.6,593.34,116.1,593.34,118.72z"></path>					<linearGradient id="SVGID_3_" gradientUnits="userSpaceOnUse" x1="762.5117" y1="-226.9976" x2="1238.3784" y2="92.2822" gradientTransform="matrix(0.5689 0 0 -0.5689 74.1456 122.1109)">			<stop offset="0" style="stop-color:#00FFD5"></stop>			<stop offset="0.0617" style="stop-color:#01F5D8"></stop>			<stop offset="0.1678" style="stop-color:#04D9DF"></stop>			<stop offset="0.3057" style="stop-color:#09ACEB"></stop>			<stop offset="0.4684" style="stop-color:#0F6EFB"></stop>			<stop offset="0.5072" style="stop-color:#115EFF"></stop>			<stop offset="1" style="stop-color:#9814FF"></stop>		</linearGradient>		<path class="st2" d="M738.41,39.53c0-7.51,4.61-11.26,13.82-11.26c9.22,0,13.82,3.75,13.82,11.26v161.74    c0,5.46-2.9,9.44-8.65,11.95h0.23c-2.5,1.08-5.18,1.93-7.96,2.56c-2.79,0.63-5.58,0.91-8.19,0.91c-2.05,0-4.15-0.17-6.31-0.57    c-2.16-0.4-4.27-1.02-6.2-1.88c-1.93-0.85-3.75-2.05-5.4-3.53s-2.96-3.3-3.87-5.52L668.83,78.39l-6.31,0.68V205.7    c0,7.51-4.66,11.26-14.05,11.26c-9.22,0-13.82-3.75-13.82-11.26V44.2c0-6.43,2.79-10.69,8.42-12.91    c5.18-2.05,10.64-3.07,16.38-3.07c4.04,0,8.14,0.8,12.29,2.45c4.15,1.65,7.28,4.72,9.5,9.27l50.63,127.03l6.54-0.68L738.41,39.53    L738.41,39.53z"></path>	</g></g><g id="Layer_6">	<path class="st3" d="M303.72,132.83c-4.27-15.93-14.51-29.24-28.79-37.49l-10.35,17.92c9.5,5.46,16.33,14.34,19.11,24.92   c2.84,10.58,1.42,21.67-4.1,31.18c-2.22,3.81-5.12,7.45-8.48,10.58c-1.99,1.76-4.38,3.7-7.23,5.52c-4.1,2.67-8.02,4.49-11.26,5.75   c-1.42,0.51-2.9,0.91-4.32,1.31c-10.01,2.45-19.63,1.25-27.08-3.47c-5.46-3.47-8.14-13.65-9.16-21.45   c7.79-3.36,17.86-5.75,22.81-2.9c8.08,4.61,14.11,12.8,16.9,23.1c0.11,0.34,0.23,0.74,0.28,1.14c3.07-1.48,6.37-3.24,9.84-5.46   c3.13-1.99,5.92-3.98,8.36-5.86c-4.78-13.54-13.54-24.35-25.14-30.95c-19.06-10.81-46.02,4.04-49.04,5.75l-5.23,3.01v6.03   c0,3.41,0.74,33.45,19.29,45.17c11.95,7.57,26.85,9.79,41.98,6.31c-1.08,4.38-2.67,8.59-4.89,12.35   c-5.46,9.5-14.34,16.27-24.92,19.11c-10.58,2.84-21.67,1.42-31.18-4.1l-10.35,17.92c9.5,5.46,20.08,8.31,30.78,8.31   c5.4,0,10.75-0.68,16.1-2.11c15.93-4.27,29.24-14.51,37.49-28.79c5.46-9.5,8.53-20.65,8.93-31.91   c9.61-6.09,17.75-14.34,23.32-23.95C305.77,165.43,307.99,148.76,303.72,132.83z"></path>	<path class="st4" d="M142.95,240.29c-19.63,11.32-44.77,4.61-56.09-15.02c-2.22-3.81-3.87-8.14-4.95-12.63   c-0.57-2.62-1.02-5.63-1.19-8.99c-0.28-4.89,0.11-9.22,0.68-12.63c0.28-1.48,0.63-2.96,1.02-4.38c2.84-9.9,8.7-17.58,16.5-21.67   c5.69-3.01,15.87-0.23,23.15,2.84c-1.02,8.42-3.98,18.32-8.87,21.22c-8.02,4.72-18.15,5.8-28.5,3.07   c-0.34-0.11-0.74-0.17-1.08-0.28c-0.28,3.41-0.4,7.17-0.23,11.26c0.11,3.7,0.46,7.05,0.85,10.13c14.05,2.62,27.93,0.46,39.42-6.31   c18.89-11.09,19.57-41.87,19.57-45.34v-6.03l-5.23-3.01c-2.9-1.71-29.3-16.1-48.7-5.86c-12.52,6.6-21.9,18.38-26.45,33.22   c-3.24-3.13-6.09-6.6-8.25-10.35C43.28,149.9,50,124.75,69.62,113.43L59.27,95.51c-29.47,17.01-39.65,54.9-22.59,84.42   c5.46,9.5,13.6,17.69,23.15,23.72c0.46,11.32,3.53,22.53,9.1,32.14c11.43,19.8,32.26,30.89,53.59,30.89   c10.47,0,21.05-2.67,30.78-8.25L142.95,240.29z"></path>	<path class="st5" d="M199.39,9.49c-10.98,0-22.13,2.9-32.14,8.19c-10.07-5.29-21.33-8.19-32.43-8.19   c-34.02,0-61.78,27.7-61.78,61.78h20.71c0-22.64,18.43-41.07,41.07-41.07c4.44,0,8.99,0.74,13.43,2.05l0,0   c2.5,0.85,5.35,1.93,8.36,3.47c4.38,2.22,7.91,4.67,10.64,6.88c1.14,0.97,2.22,1.99,3.3,3.13c7.11,7.45,10.87,16.38,10.52,25.15   c-0.28,6.37-7.79,13.82-14.05,18.66c-6.77-5.12-13.88-12.63-13.94-18.32c-0.06-9.27,4.04-18.6,11.61-26.17   c0.28-0.28,0.57-0.57,0.85-0.8c-2.79-1.93-6.03-3.93-9.61-5.86c-3.24-1.71-6.37-3.13-9.27-4.32   c-9.27,10.87-14.34,23.95-14.22,37.26c0.17,21.9,26.51,37.83,29.47,39.59l5.23,3.01l5.18-3.07c2.9-1.71,28.61-17.29,29.47-39.25   c0.57-14.11-4.95-28.16-15.53-39.48c4.32-1.31,8.76-1.99,13.14-1.99c22.64,0,41.07,18.43,41.07,41.07h20.71   C261.17,37.2,233.41,9.49,199.39,9.49z"></path>	<polygon class="st3" points="197.74,229.65 149.95,229.65 173.84,271.07  "></polygon>	<polygon class="st5" points="275.05,70.82 227.26,70.82 251.16,112.18  "></polygon>	<polygon class="st4" points="98.98,83.62 51.19,83.62 75.08,124.98  "></polygon></g><g id="Layer_4">	<g>		<g>			<path class="st6" d="M344.17,248.09h2.9l2.33,12c0.4,2.39,0.85,4.72,1.31,7.11h0.11c0.51-2.39,1.02-4.72,1.54-7.11l3.07-12h2.56     l3.07,12c0.51,2.33,1.08,4.72,1.59,7.11h0.11c0.4-2.39,0.8-4.78,1.25-7.11l2.33-12h2.73l-4.55,22.02h-3.36l-3.36-13.26     c-0.4-1.71-0.74-3.3-1.08-5.01h-0.11c-0.34,1.71-0.74,3.3-1.08,5.01l-3.24,13.26h-3.3L344.17,248.09z"></path>			<path class="st6" d="M376.2,259.07c0-7.05,3.87-11.32,9.44-11.32s9.44,4.27,9.44,11.32c0,7.05-3.87,11.49-9.44,11.49     S376.2,266.12,376.2,259.07z M392.13,259.07c0-5.46-2.56-8.87-6.54-8.87c-3.98,0-6.54,3.41-6.54,8.87c0,5.46,2.56,9.05,6.54,9.05     C389.57,268.11,392.13,264.53,392.13,259.07z"></path>			<path class="st6" d="M404.41,248.09h6.88c4.49,0,7.74,1.59,7.74,6.2c0,4.38-3.24,6.54-7.74,6.54h-4.1v9.33h-2.79V248.09z      M410.9,258.55c3.41,0,5.29-1.37,5.29-4.27c0-2.9-1.88-3.93-5.29-3.93h-3.7v8.19H410.9z M410.79,260.03l2.22-1.42l6.71,11.55     h-3.19L410.79,260.03z"></path>			<path class="st6" d="M428.19,248.09h2.79v11.04h0.11l9.16-11.04h3.19l-6.88,8.42l7.96,13.65h-3.13l-6.6-11.43l-3.75,4.49v6.94     h-2.79v-22.07H428.19z"></path>			<path class="st6" d="M463.69,248.09h2.79v9.22h10.24v-9.22h2.79v22.02h-2.79v-10.35h-10.24v10.35h-2.79V248.09z"></path>			<path class="st6" d="M494.75,248.09h3.19l7.45,22.02h-2.96l-3.87-12.29c-0.8-2.45-1.48-4.89-2.22-7.45h-0.11     c-0.68,2.56-1.37,4.95-2.16,7.45l-3.87,12.29h-2.84L494.75,248.09z M491.23,261.17h10.13v2.22h-10.13V261.17z"></path>			<path class="st6" d="M513.13,248.09h6.88c4.49,0,7.74,1.59,7.74,6.2c0,4.38-3.24,6.54-7.74,6.54h-4.1v9.33h-2.79V248.09z      M519.61,258.55c3.41,0,5.29-1.37,5.29-4.27c0-2.9-1.88-3.93-5.29-3.93h-3.7v8.19H519.61z M519.5,260.03l2.22-1.42l6.71,11.55     h-3.19L519.5,260.03z"></path>			<path class="st6" d="M536.91,248.09h5.52c6.77,0,10.41,3.93,10.41,10.92c0,7-3.64,11.09-10.3,11.09h-5.63V248.09z M542.2,267.83     c5.18,0,7.74-3.24,7.74-8.82c0-5.57-2.56-8.65-7.74-8.65h-2.5v17.41h2.5V267.83z"></path>			<path class="st6" d="M578.1,248.09h3.19l7.45,22.02h-2.96l-3.87-12.29c-0.8-2.45-1.48-4.89-2.22-7.45h-0.11     c-0.68,2.56-1.37,4.95-2.16,7.45l-3.87,12.29h-2.84L578.1,248.09z M574.57,261.17h10.13v2.22h-10.13V261.17z"></path>			<path class="st6" d="M596.53,248.09h2.9l7.96,13.82l2.39,4.55h0.11c-0.11-2.22-0.34-4.72-0.34-7v-11.38h2.67v22.02h-2.9     l-7.96-13.88l-2.39-4.55h-0.11c0.11,2.22,0.34,4.55,0.34,6.88v11.55h-2.67V248.09z"></path>			<path class="st6" d="M622.87,248.09h5.52c6.77,0,10.41,3.93,10.41,10.92c0,7-3.64,11.09-10.3,11.09h-5.63V248.09z M628.22,267.83     c5.18,0,7.74-3.24,7.74-8.82c0-5.57-2.56-8.65-7.74-8.65h-2.5v17.41h2.5V267.83z"></path>			<path class="st6" d="M659.56,248.09h12.69v2.39h-9.84v6.88h8.36v2.39h-8.36v8.02h10.24v2.39h-13.08V248.09z"></path>			<path class="st6" d="M681.92,248.09h2.9l7.96,13.82l2.39,4.55h0.11c-0.11-2.22-0.34-4.72-0.34-7v-11.38h2.67v22.02h-2.9     l-7.96-13.88l-2.39-4.55h-0.11c0.11,2.22,0.34,4.55,0.34,6.88v11.55h-2.67V248.09z"></path>			<path class="st6" d="M706.38,267.03l1.99-1.42c0.97,1.76,2.22,2.45,3.81,2.45c2.33,0,3.53-1.31,3.53-4.67v-15.3h2.79v15.53     c0,3.81-1.76,6.88-6.09,6.88C709.62,270.56,707.63,269.31,706.38,267.03z"></path>			<path class="st6" d="M727.83,259.07c0-7.05,3.87-11.32,9.44-11.32c5.52,0,9.44,4.27,9.44,11.32c0,7.05-3.87,11.49-9.44,11.49     C731.7,270.56,727.83,266.12,727.83,259.07z M743.76,259.07c0-5.46-2.56-8.87-6.54-8.87c-3.93,0-6.54,3.41-6.54,8.87     c0,5.46,2.56,9.05,6.54,9.05C741.14,268.05,743.76,264.53,743.76,259.07z"></path>			<path class="st6" d="M759.63,261.63l-6.6-13.48h3.01l2.84,6.2c0.68,1.65,1.37,3.13,2.1,4.78h0.11c0.74-1.65,1.54-3.19,2.22-4.78     l2.84-6.2h2.9l-6.6,13.48v8.53h-2.79v-8.53H759.63z"></path>		</g>	</g></g></svg>